<svg height="512" viewBox="0 0 512 512" width="512" xmlns="http://www.w3.org/2000/svg" xmlns:xlink="http://www.w3.org/1999/xlink"><linearGradient id="a" gradientUnits="userSpaceOnUse" x1="-119.533" x2="391.35" y1="375.533" y2="-135.35" data-name="New Gradient Swatch 1"><stop offset="0" stop-color="#003f8a"/><stop offset=".518" stop-color="#00d7df"/><stop offset="1" stop-color="#006df0"/></linearGradient><linearGradient id="d" x1="8.467" x2="519.35" xlink:href="#a" y1="503.533" y2="-7.35"/><linearGradient id="f" x1="136.467" x2="647.35" xlink:href="#a" y1="631.533" y2="120.65"/><linearGradient id="g" x1="149.401" x2="660.284" xlink:href="#a" y1="644.467" y2="133.583"/><g><g fill="url(#a)"><path d="m128 40a88 88 0 1 0 88 88 88.1 88.1 0 0 0 -88-88zm0 160a72 72 0 1 1 72-72 72.081 72.081 0 0 1 -72 72z"/><path d="m144 112a8 8 0 0 0 0-16h-8a8 8 0 0 0 -16 0h-8a8 8 0 0 0 -8 8v24a8 8 0 0 0 8 8h24v8h-24a8 8 0 0 0 0 16h8a8 8 0 0 0 16 0h8a8 8 0 0 0 8-8v-24a8 8 0 0 0 -8-8h-24v-8z"/><path d="m220 8h-184a28.032 28.032 0 0 0 -28 28v184a28.032 28.032 0 0 0 28 28h184a28.032 28.032 0 0 0 28-28v-184a28.032 28.032 0 0 0 -28-28zm12 212a12.013 12.013 0 0 1 -12 12h-184a12.013 12.013 0 0 1 -12-12v-184a12.013 12.013 0 0 1 12-12h184a12.013 12.013 0 0 1 12 12z"/></g><path d="m476 8h-184a28.032 28.032 0 0 0 -28 28v184a28.032 28.032 0 0 0 28 28h184a28.032 28.032 0 0 0 28-28v-184a28.032 28.032 0 0 0 -28-28zm12 212a12.013 12.013 0 0 1 -12 12h-184a12.013 12.013 0 0 1 -12-12v-184a12.013 12.013 0 0 1 12-12h184a12.013 12.013 0 0 1 12 12z" fill="url(#d)"/><path d="m220 264h-184a28.032 28.032 0 0 0 -28 28v184a28.032 28.032 0 0 0 28 28h184a28.032 28.032 0 0 0 28-28v-184a28.032 28.032 0 0 0 -28-28zm12 212a12.013 12.013 0 0 1 -12 12h-184a12.013 12.013 0 0 1 -12-12v-184a12.013 12.013 0 0 1 12-12h184a12.013 12.013 0 0 1 12 12z" fill="url(#d)"/><path d="m476 264h-184a28.031 28.031 0 0 0 -28 28v184a28.031 28.031 0 0 0 28 28h184a28.031 28.031 0 0 0 28-28v-184a28.031 28.031 0 0 0 -28-28zm12 212a12.01 12.01 0 0 1 -12 12h-184a12.01 12.01 0 0 1 -12-12v-184a12.01 12.01 0 0 1 12-12h184a12.01 12.01 0 0 1 12 12z" fill="url(#f)"/><path d="m439.972 359.335a8 8 0 0 0 -7.972-7.335h-16v-12a28.032 28.032 0 0 0 -28-28h-8a28.032 28.032 0 0 0 -28 28v12h-16a8 8 0 0 0 -7.972 7.335l-8 96a8 8 0 0 0 7.972 8.665h112a8 8 0 0 0 7.972-8.665zm-71.972-19.335a12.013 12.013 0 0 1 12-12h8a12.013 12.013 0 0 1 12 12v12h-32zm-31.306 108 6.667-80h8.639v8a8 8 0 0 0 16 0v-8h32v8a8 8 0 0 0 16 0v-8h8.639l6.667 80z" fill="url(#g)"/></g></svg>