<svg id="Layer_1" height="512" viewBox="0 0 512 512" width="512" xmlns="http://www.w3.org/2000/svg" data-name="Layer 1"><path d="m386.431 12.521a117.677 117.677 0 0 0 -92.111 191.314l-17.2 40.446a6 6 0 0 0 6.556 8.258l63.386-11.088a117.854 117.854 0 1 0 39.371-228.93zm0 223.747a105.454 105.454 0 0 1 -36.745-6.63 6.011 6.011 0 0 0 -3.119-.284l-54.085 9.462 14.308-33.64a6 6 0 0 0 -.953-6.238 105.807 105.807 0 1 1 80.594 37.33z"/><path d="m428.22 47.565a91.657 91.657 0 0 0 -41.37-9.732c-50.908 0-92.324 41.269-92.324 92s41.416 92 92.324 92 92.323-41.269 92.323-91.995a91.546 91.546 0 0 0 -50.953-82.273zm-41.37 162.258c-44.29 0-80.324-35.885-80.324-79.995s36.034-79.995 80.324-79.995a80.181 80.181 0 0 1 80.323 80c0 44.105-36.033 79.99-80.323 79.99z"/><path d="m364.559 149.31a13.544 13.544 0 0 0 -26.959-1.81 13.942 13.942 0 0 0 -.12 1.86 2.817 2.817 0 0 1 -1.009 1.843 15.6 15.6 0 0 0 10.168 26.9c.208.008.416.013.623.013a15.608 15.608 0 0 0 15.054-19.777 2.323 2.323 0 0 1 .144-1.8 13.456 13.456 0 0 0 2.099-7.229zm-12.228.793a14.235 14.235 0 0 0 -1.581 11.455 3.518 3.518 0 0 1 .128.947 3.622 3.622 0 0 1 -3.783 3.608 3.72 3.72 0 0 1 -3.481-3.477 3.558 3.558 0 0 1 1.118-2.73 14.52 14.52 0 0 0 4.743-10.583 1.671 1.671 0 0 1 .015-.236 1.578 1.578 0 0 1 1.337-1.291 1.744 1.744 0 0 1 .188-.01 1.527 1.527 0 0 1 1.039.4 1.509 1.509 0 0 1 .505 1.128 1.466 1.466 0 0 1 -.228.786z"/><path d="m442.983 134.387a12.171 12.171 0 1 0 -19.234 13.98 12.561 12.561 0 0 0 1.335 1.028 1.473 1.473 0 0 1 .332.808 13.918 13.918 0 0 0 24.9 5.871 13.722 13.722 0 0 0 2.484-10.574 13.9 13.9 0 0 0 -9.29-10.773 1.019 1.019 0 0 1 -.527-.34zm-11.283 4.989a.238.238 0 0 1 -.037-.144.16.16 0 0 1 .118-.1.205.205 0 0 1 .057-.008.177.177 0 0 1 .109.036l.056.058q.124.282.262.555c-.188-.135-.376-.273-.565-.397zm8.95 9.6a1.987 1.987 0 0 1 -2.542.474 1.85 1.85 0 0 1 -.86-1.269 14.1 14.1 0 0 0 -1.339-4.062 13.3 13.3 0 0 0 3.812 2 1.9 1.9 0 0 1 1.261 1.456 1.8 1.8 0 0 1 -.336 1.397z"/><path d="m378.357 93.638a2.786 2.786 0 0 1 2.047-.48 15.528 15.528 0 0 0 12.108-4.482 15.765 15.765 0 0 0 .581-21.439 16.162 16.162 0 0 0 -11.276-5.522 15.443 15.443 0 0 0 -14.1 7.422 2.15 2.15 0 0 1 -1.36 1.067 13.377 13.377 0 0 0 -11.08 13.452 13.85 13.85 0 0 0 13.88 13.588 13.291 13.291 0 0 0 9.2-3.606zm-8.377-8.616a1.749 1.749 0 0 1 -2.031-.2 1.854 1.854 0 0 1 -.674-1.371 1.41 1.41 0 0 1 .44-1.079 1.364 1.364 0 0 1 .708-.349 14.082 14.082 0 0 0 9.568-6.688 3.316 3.316 0 0 1 .582-.715 3.561 3.561 0 0 1 2.615-.924 4.047 4.047 0 0 1 2.852 1.417 3.827 3.827 0 0 1 -.01 5.071 3.531 3.531 0 0 1 -2.767 1 14.464 14.464 0 0 0 -11.125 3.716 1.3 1.3 0 0 1 -.158.122z"/><path d="m339.953 122.056a14.42 14.42 0 0 0 4.716.814 12.03 12.03 0 0 0 9.044-3.923 6.03 6.03 0 0 0 -.39-8.5 5.946 5.946 0 0 0 -8.433.405 2.859 2.859 0 0 1 -1.9-.58 3.124 3.124 0 0 1 -1.46-2.111 15.278 15.278 0 0 0 -10.661-13.168c-5.238-1.71-10.516-.367-13.768 3.507a6 6 0 0 0 9.142 7.772 3.061 3.061 0 0 1 1.874.605 3.1 3.1 0 0 1 1.441 2.1 15.317 15.317 0 0 0 10.395 13.079z"/><path d="m423.845 101.213a14.652 14.652 0 0 0 2.757.265 11.856 11.856 0 0 0 10.777-6.152 10.288 10.288 0 0 0 -.717-10.581 6 6 0 0 0 1.362-11.866c-5.79-1.247-11.336 1.051-13.808 5.717a10.264 10.264 0 0 0 .686 10.723 6 6 0 0 0 -1.057 11.894z"/><path d="m412.624 183.113a6 6 0 0 0 -8.249 1.991 2.286 2.286 0 0 1 -2.543 1.1 2.263 2.263 0 0 1 -1.891-1.981 14.41 14.41 0 0 0 -26.759-5.029 6 6 0 0 0 10.418 5.955 2.411 2.411 0 0 1 4.47.823 14.244 14.244 0 0 0 11.365 11.99 14.794 14.794 0 0 0 2.963.3 14.241 14.241 0 0 0 12.217-6.9 6 6 0 0 0 -1.991-8.249z"/><path d="m391.46 117.321a14.172 14.172 0 0 0 -.254 16.666 2.226 2.226 0 0 1 -.021 2.7 2.289 2.289 0 0 1 -2.623.914 6 6 0 1 0 -3.252 11.551 14.71 14.71 0 0 0 3.994.556 14.386 14.386 0 0 0 11.775-22.541 2.22 2.22 0 0 1 .041-2.728 2.279 2.279 0 0 1 2.671-.867 6 6 0 1 0 3.59-11.45 14.232 14.232 0 0 0 -15.921 5.199z"/><path d="m271.2 302.411c-.014-5.875-.073-24.067-.209-26.287a136.661 136.661 0 0 0 -136.691-128.903l-5.072.091a125.065 125.065 0 0 0 -104.149 62.645 126.629 126.629 0 0 0 -2.886 122.767c3.853 9.514 13.653 35.533 14.821 46.8v113.955a6 6 0 0 0 6 6h116.786a6 6 0 0 0 6-6v-27.56a10.726 10.726 0 0 1 2.536-7.046 12.787 12.787 0 0 1 9.681-4.4h.054c5.63.023 12.147.051 18.2.082a6 6 0 0 0 5.087 2.982l52.514.8h.27a23.779 23.779 0 0 0 23.765-23.365 23.733 23.733 0 0 0 -23.567-24.04h-2.053v-28h32.25a12.244 12.244 0 0 0 8.241-3.023 11.788 11.788 0 0 0 3.135-12.987zm-147.766-8.511a33.391 33.391 0 0 1 33.153 33.766l-.066 4.911a33.464 33.464 0 0 1 -33.462 32.868h-.315a33.389 33.389 0 0 1 -33.153-33.765l.066-4.911a33.464 33.464 0 0 1 33.462-32.869zm72.152 148.65c-5.842-.029-12.061-.056-17.46-.078h-.106a24.73 24.73 0 0 0 -23.492 16.836 10.88 10.88 0 0 0 -.552 3.4l-.172 24.775h-104.79v-108.254c-.008-.174-.015-.343-.023-.517-1.406-15.247-15.2-49.328-15.788-50.77q-.109-.269-.244-.527a114.692 114.692 0 0 1 2.5-111.433 113.127 113.127 0 0 1 82.032-55.58v121.855a45.468 45.468 0 0 0 -39.83 44.348l-.066 4.912a45.371 45.371 0 0 0 40.823 45.689l-.1 12.088a49.848 49.848 0 0 0 49.494 50.227l27.819.138zm58.691-19.617a11.724 11.724 0 0 1 8.321 3.557 11.6 11.6 0 0 1 3.316 8.311 11.754 11.754 0 0 1 -11.745 11.537h-.133l-46.494-.709.331-22.695zm-7.985-52a6 6 0 0 0 -6 6v34h-38.332a6 6 0 0 0 -6 5.913l-.158 10.813-27.909-.138a37.845 37.845 0 0 1 -37.578-38.121l.1-12.561a45.48 45.48 0 0 0 38.1-44.1l.066-4.911a45.359 45.359 0 0 0 -39.1-45.477v-123.038l4.809-.092a124.664 124.664 0 0 1 124.71 117.594c.1 1.617.169 17.251.191 26.727a6.007 6.007 0 0 0 .4 2.133l25.009 65.253z"/><path d="m122.871 352.547h.207a21.96 21.96 0 0 0 21.94-21.587l.027-1.986a21.914 21.914 0 0 0 -21.738-22.174h-.207a21.96 21.96 0 0 0 -21.94 21.59l-.026 1.983a21.911 21.911 0 0 0 21.737 22.178zm-9.713-24a9.959 9.959 0 0 1 17.078-6.754 9.792 9.792 0 0 1 2.811 7.019l-.027 1.985a9.937 9.937 0 0 1 -9.944 9.751h-.094a9.912 9.912 0 0 1 -7.04-3 9.8 9.8 0 0 1 -2.81-7.021z"/></svg>