<svg id="Layer_1" data-name="Layer 1" xmlns="http://www.w3.org/2000/svg" viewBox="0 0 300 300"><defs><style>.cls-1,.cls-2{fill:#fff;}.cls-1{fill-rule:evenodd;}</style></defs><title>OAS_Shop_Admin</title><path class="cls-1" d="M53.72,171.28l-16.1,60.09,16.1-60.09ZM93.36,23.34,68.59,115.77,93.36,23.34ZM64.79,174.24a11.46,11.46,0,0,0-22.13-5.91l-16.1,60.09a11.46,11.46,0,0,0,22.13,5.91l16.1-60.09ZM195.91,192A11.46,11.46,0,1,0,173.77,186L147.1,285.58a11.46,11.46,0,0,0,22.13,5.92L195.91,192Zm41.5-154.9a11.46,11.46,0,1,0-22.13-5.92l-23.11,86.27a11.46,11.46,0,1,0,22.13,5.91l23.11-86.26Zm62.11,106.26a11.46,11.46,0,0,0-22.13-5.91L254,224.61a11.46,11.46,0,1,0,22.13,5.91l23.37-87.2Zm-195.09-117a11.46,11.46,0,0,0-22.13-5.91L57.53,112.81a11.46,11.46,0,1,0,22.13,5.91Z"/><path class="cls-2" d="M111.4,169.31a11.45,11.45,0,1,0-22.13-5.91L62.59,262.94a11.46,11.46,0,0,0,22.13,5.91l26.67-99.54Zm122.41,50.21a11.46,11.46,0,0,0-22.13-5.92l-16.1,60.1a11.46,11.46,0,1,0,22.13,5.91l16.1-60.09ZM273.45,71.58a11.46,11.46,0,0,0-22.13-5.92L226.55,158.1A11.46,11.46,0,0,0,248.68,164l24.77-92.43ZM197,18.93A11.46,11.46,0,0,0,174.84,13l-3.66,13.65a11.46,11.46,0,0,0,22.13,5.91L197,18.93ZM46,75.39a11.45,11.45,0,1,0-22.13-5.91L.48,156.67a11.46,11.46,0,0,0,22.13,5.91L46,75.39Zm106.92-61A11.46,11.46,0,0,0,130.77,8.5L107.65,94.77a11.46,11.46,0,1,0,22.13,5.91Z"/><path class="cls-2" d="M147.24,116.06c-31.66,7.13-63,15.68-94.4,23.81-3.88,3.46-6.86,10.52-5,11,7.11,1.93,81.77-9.57,89.25,3L103,281.06A11.45,11.45,0,1,0,125.15,287l34.08-127.18C172,152.68,230.88,200,238,201.85c1.88.5,2.83-7.1,1.2-12-23.14-22.75-46-45.82-69.85-67.82L185,63.79a11.46,11.46,0,1,0-22.13-5.91Z"/></svg>